#!OML:ASF F:\VICON\USERDATA\INSTALL\SteveWalk\SteveWalk.ASF
:FULLY-SPECIFIED
:DEGREES
289
root 0.331687 15.8999 15.66 18.5036 -2.7977 3.11702
lowerback -16.5886 0.836127 -6.7248
upperback -5.85769 2.24801 -1.982
thorax 2.84595 1.15215 2.12188
lowerneck -6.40188 -1.48452 -1.1044
upperneck 10.3583 -2.28639 3.63799
head 4.66352 -0.981893 1.29896
rclavicle -1.22998e-015 -1.03368e-014
rhumerus -27.0835 5.46039 -87.3343
rradius 50.0552
rwrist -14.5911
rhand -18.2946 -30.1015
rfingers 7.12502
rthumb 7.98605 -59.9306
lclavicle -1.22998e-015 -1.03368e-014
lhumerus -75.0004 33.9382 26.5881
lradius 11.4712
lwrist -39.5992
lhand -13.5399 -10.3405
lfingers 7.12502
lthumb 12.5727 19.2611
rfemur -6.7544 -3.15655 15.9487
rtibia 44.8696
rfoot 11.2244 19.9
rtoes -7.59235
lfemur -50.2654 -0.613665 -25.6385
ltibia 34.2525
lfoot -4.64387 -5.7654
ltoes -7.54997
290
root 0.335039 15.9072 15.8917 18.4495 -2.89537 3.41443
lowerback -16.5802 0.763065 -7.17257
upperback -5.83939 2.22822 -2.112
thorax 2.84676 1.14392 2.23163
lowerneck -6.50789 -1.50001 -1.07641
upperneck 10.7161 -2.34467 3.85779
head 4.33125 -0.982557 1.22639
rclavicle -3.32529e-014 1.55052e-014
rhumerus -28.0152 5.05229 -87.5435
rradius 49.4128
rwrist -14.3874
rhand -18.1299 -29.947
rfingers 7.12502
rthumb 8.14492 -59.77
lclavicle -3.32529e-014 1.55052e-014
lhumerus -74.544 34.2378 26.952
lradius 11.5711
lwrist -38.5194
lhand -13.3568 -10.6856
lfingers 7.12502
lthumb 12.7493 18.9052
rfemur -8.17149 -3.03775 15.4103
rtibia 47.8097
rfoot 13.2072 20.5143
rtoes -9.58875
lfemur -49.7984 -0.851889 -25.9571
ltibia 35.2373
lfoot -6.0459 -5.4122
ltoes -10.7401
291
root 0.349145 15.9133 16.1323 18.513 -2.87934 3.49764
lowerback -16.8741 0.731098 -7.19511
upperback -5.86338 2.2211 -2.2403
thorax 2.98185 1.1351 2.11541
lowerneck -6.22493 -1.49712 -1.14498
upperneck 10.1235 -2.3355 4.03562
head 4.55247 -0.991759 1.43843
rclavicle -1.81453e-014 -3.85642e-014
rhumerus -29.099 4.55296 -87.7867
rradius 48.8285
rwrist -14.3449
rhand -18.0984 -30.3731
rfingers 7.12502
rthumb 8.1754 -60.1949
lclavicle -1.81453e-014 -3.85642e-014
lhumerus -74.3235 34.6503 26.7087
lradius 11.5779
lwrist -38.1713
lhand -13.2148 -11.1077
lfingers 7.12502
lthumb 12.8862 18.4745
rfemur -9.67098 -3.054 15.0644
rtibia 50.8363
rfoot 14.8542 20.9222
rtoes -11.8924
lfemur -49.3303 -0.857681 -26.3242
ltibia 36.0368
lfoot -8.15768 -5.15105
ltoes -17.4471
292
root 0.371512 15.9209 16.3776 18.1777 -1.52807 3.8764
lowerback -16.7935 0.234285 -7.14684
upperback -5.66547 1.5747 -2.37802
thorax 3.21187 0.802992 1.8247
lowerneck -5.73139 -1.47248 -1.13849
upperneck 9.55385 -2.30017 4.20338
head 4.24857 -0.977738 1.49239
rclavicle 1.33434e-014 -1.94809e-014
rhumerus -30.0464 4.02123 -88.0768
rradius 48.1751
rwrist -14.2532
rhand -18.168 -29.4962
rfingers 7.12502
rthumb 8.10818 -59.3207
lclavicle 1.33434e-014 -1.94809e-014
lhumerus -72.525 34.2157 29.4739
lradius 11.9676
lwrist -35.3178
lhand -13.0938 -10.8332
lfingers 7.12502
lthumb 13.0028 18.7416
rfemur -10.3785 -4.26184 14.8718
rtibia 53.6829
rfoot 17.1427 20.655
rtoes -14.0189
lfemur -48.264 -1.79929 -26.7827
ltibia 36.6927
lfoot -8.97815 -5.65243
ltoes -15.6557
293
root 0.35108 15.935 16.5315 18.1158 -2.98113 4.36573
lowerback -15.9854 0.44231 -8.20974
upperback -5.81429 1.92707 -2.56494
thorax 2.55569 1.00834 2.26405
lowerneck -5.78737 -1.44455 -1.15139
upperneck 9.37443 -2.2668 4.31965
head 4.19703 -0.957775 1.53459
rclavicle 1.95244e-014 -1.59028e-015
rhumerus -30.7045 3.58001 -88.4041
rradius 47.5035
rwrist -14.3554
rhand -18.2243 -29.2999
rfingers 7.12502
rthumb 8.05389 -59.1265
lclavicle 1.95244e-014 -1.59028e-015
lhumerus -71.31 34.4513 30.9795
lradius 12.2154
lwrist -33.7206
lhand -12.9663 -10.4903
lfingers 7.12502
lthumb 13.1257 19.0766
rfemur -12.8557 -2.85041 14.0526
rtibia 56.8358
rfoot 20.4853 19.4057
rtoes -15.2237
lfemur -47.7703 -0.898058 -27.5293
ltibia 37.1069
lfoot -8.81727 -5.40184
ltoes -11.4269
294
root 0.352355 15.9546 16.7319 17.6922 -2.66347 4.55695
lowerback -15.366 0.293164 -8.35665
upperback -5.63997 1.70179 -2.65454
thorax 2.43029 0.897832 2.20231
lowerneck -6.23136 -1.44892 -1.15939
upperneck 9.58574 -2.29333 4.4427
head 4.36644 -0.957656 1.57839
rclavicle -9.43917e-015 -1.66979e-014
rhumerus -31.2583 2.94926 -88.6777
rradius 46.7565
rwrist -14.4721
rhand -18.3175 -30.2338
rfingers 7.12502
rthumb 7.96394 -60.0637
lclavicle -9.43917e-015 -1.66979e-014
lhumerus -71.2651 35.7426 29.9413
lradius 12.0391
lwrist -34.714
lhand -12.8834 -10.7269
lfingers 7.12502
lthumb 13.2056 18.8348
rfemur -14.0973 -3.04811 13.9855
rtibia 59.6143
rfoot 22.4866 17.2868
rtoes -13.0681
lfemur -46.5515 -1.05591 -27.751
ltibia 37.2975
lfoot -10.48 -5.10836
ltoes -14.1319
295
root 0.35613 15.979 16.9487 17.4805 -2.83737 4.73232
lowerback -15.2854 0.283218 -8.5089
upperback -5.51434 1.71485 -2.77331
thorax 2.51769 0.897761 2.16404
lowerneck -6.46754 -1.39827 -1.16025
upperneck 9.68416 -2.24175 4.56118
head 4.45089 -0.922465 1.62329
rclavicle -1.84249e-014 2.06736e-014
rhumerus -31.8033 2.22986 -88.8694
rradius 45.5777
rwrist -14.21
rhand -18.4573 -30.2275
rfingers 7.12502
rthumb 7.82895 -60.0626
lclavicle -1.84249e-014 2.06736e-014
lhumerus -70.7664 36.6402 29.7516
lradius 11.8699
lwrist -35.1972
lhand -12.8344 -11.1377
lfingers 7.12502
lthumb 13.2528 18.421
rfemur -15.5912 -3.0348 13.7246
rtibia 62.309
rfoot 22.4185 15.5295
rtoes -9.47384
lfemur -45.4522 -0.790555 -28.1206
ltibia 37.314
lfoot -12.1284 -4.62299
ltoes -16.7171
296
root 0.361882 16.0065 17.1619 17.2946 -3.12847 5.14363
lowerback -15.1779 0.243359 -8.87118
upperback -5.46641 1.71224 -2.96113
thorax 2.50297 0.896485 2.1652
lowerneck -6.33546 -1.33457 -1.09324
upperneck 9.56482 -2.15853 4.5658
head 4.37681 -0.881818 1.61629
rclavicle -1.49337e-014 1.66979e-014
rhumerus -32.4727 1.51412 -89.0555
rradius 44.3411
rwrist -13.7607
rhand -18.4399 -30.007
rfingers 7.12502
rthumb 7.84578 -59.8415
lclavicle -1.49337e-014 1.66979e-014
lhumerus -69.3284 36.7876 31.3109
lradius 11.9097
lwrist -34.3314
lhand -12.8748 -10.9264
lfingers 7.12502
lthumb 13.2139 18.6348
rfemur -17.1671 -3.05759 13.1635
rtibia 64.6913
rfoot 21.0282 14.0987
rtoes -6.31599
lfemur -44.4035 -0.44627 -28.8079
ltibia 37.3341
lfoot -12.8615 -4.48557
ltoes -16.4109
297
root 0.367669 16.0317 17.3541 17.34 -2.97949 5.30843
lowerback -15.0009 0.0699058 -8.94537
upperback -5.50697 1.47378 -3.04556
thorax 2.38832 0.783695 2.07472
lowerneck -6.21012 -1.31909 -0.918522
upperneck 9.4612 -2.13597 4.41684
head 4.30691 -0.874313 1.53368
rclavicle 1.57475e-015 3.10104e-014
rhumerus -33.1332 0.79843 -89.255
rradius 43.2044
rwrist -13.3374
rhand -18.4424 -29.911
rfingers 7.12502
rthumb 7.8434 -59.7455
lclavicle 1.57475e-015 3.10104e-014
lhumerus -67.4631 36.7204 33.6268
lradius 12.159
lwrist -32.9244
lhand -12.9753 -10.352
lfingers 7.12502
lthumb 13.117 19.2154
rfemur -18.9981 -3.39419 13.0581
rtibia 66.9278
rfoot 19.0201 12.5518
rtoes -5.26454
lfemur -43.6748 -0.335881 -29.1551
ltibia 37.3359
lfoot -13.4288 -4.51822
ltoes -17.0838
298
root 0.377605 16.0507 17.5421 17.3789 -2.62351 4.96475
lowerback -14.8251 -0.0819442 -8.44549
upperback -5.51617 1.17875 -2.93585
thorax 2.32684 0.636862 1.86246
lowerneck -6.18272 -1.29359 -0.986064
upperneck 9.45694 -2.09242 4.39551
head 4.29915 -0.856844 1.54109
rclavicle 6.07225e-015 0
rhumerus -33.5889 0.232894 -89.3617
rradius 41.6831
rwrist -12.9324
rhand -18.806 -29.0091
rfingers 7.12502
rthumb 7.49245 -58.8564
lclavicle 6.07225e-015 0
lhumerus -65.36 36.5556 36.3988
lradius 12.4377
lwrist -31.3304
lhand -13.118 -9.6998
lfingers 7.12502
lthumb 12.9794 19.8765
rfemur -20.6833 -3.80559 13.5926
rtibia 68.9256
rfoot 16.4018 11.4487
rtoes -6.28641
lfemur -42.9453 -0.336441 -28.8636
ltibia 37.3894
lfoot -13.9091 -4.49655
ltoes -17.0246
299
root 0.372032 16.0724 17.7466 17.2864 -3.17808 5.1157
lowerback -14.9308 -0.0225649 -8.7798
upperback -5.46018 1.31924 -2.9487
thorax 2.41896 0.703728 2.05934
lowerneck -6.11764 -1.29783 -1.38317
upperneck 9.51585 -2.08722 4.65851
head 4.31979 -0.856538 1.70432
rclavicle -9.31493e-015 1.11319e-014
rhumerus -34.0136 -0.554306 -89.2915
rradius 40.04
rwrist -12.3372
rhand -19.1794 -28.3439
rfingers 7.12502
rthumb 7.13202 -58.2037
lclavicle -9.31493e-015 1.11319e-014
lhumerus -63.3517 36.4438 38.8506
lradius 12.5154
lwrist -30.4581
lhand -13.6623 -9.60461
lfingers 7.12502
lthumb 12.4547 20.0043
rfemur -22.518 -3.45595 13.4223
rtibia 70.7997
rfoot 13.6405 10.5286
rtoes -4.98322
lfemur -42.0128 0.0105565 -29.0875
ltibia 37.4426
lfoot -13.9817 -4.38924
ltoes -13.6143
300
root 0.384633 16.1 17.9395 17.3182 -3.21438 5.15363
lowerback -14.9146 -0.040607 -8.64166
upperback -5.44554 1.27679 -2.99728
thorax 2.43593 0.680038 1.92443
lowerneck -6.07848 -1.2519 -1.47297
upperneck 9.6059 -2.02888 4.74542
head 4.34571 -0.826444 1.75491
rclavicle -7.37056e-015 3.02153e-014
rhumerus -34.4368 -1.50319 -89.1707
rradius 38.5879
rwrist -11.6177
rhand -18.7787 -29.1329
rfingers 7.12502
rthumb 7.51876 -58.9793
lclavicle -7.37056e-015 3.02153e-014
lhumerus -60.5849 35.861 42.3536
lradius 12.8668
lwrist -28.4272
lhand -13.7758 -8.20105
lfingers 7.12502
lthumb 12.3452 21.4145
rfemur -24.3333 -3.61685 13.4076
rtibia 72.336
rfoot 9.81182 9.67654
rtoes -6.69727
lfemur -41.1801 -0.0346321 -29.1705
ltibia 37.4938
lfoot -13.7757 -4.63956
ltoes -7.86519
